HIERARCHY
ROOT newVegas:Hips
{
	OFFSET 0.000000 96.479958 0.000000
	CHANNELS 6 Xposition Yposition Zposition Xrotation Yrotation Zrotation
	JOINT newVegas:Pelvis
	{
		OFFSET 0.000000 0.000000 0.000000
		CHANNELS 3 Xrotation Yrotation Zrotation
		JOINT newVegas:LeftUpLeg
		{
			OFFSET 18.735201 -5.666702 -4.541200
			CHANNELS 3 Xrotation Yrotation Zrotation
			JOINT newVegas:LeftLeg
			{
				OFFSET -0.021200 -31.938179 0.493100
				CHANNELS 3 Xrotation Yrotation Zrotation
				JOINT newVegas:LeftFoot
				{
					OFFSET 0.021200 -31.938179 -4.336299
					CHANNELS 3 Xrotation Yrotation Zrotation
					JOINT newVegas:LeftToeBase
					{
						OFFSET 0.943001 -26.722000 15.023500
						CHANNELS 3 Xrotation Yrotation Zrotation
						End Site
						{
							OFFSET 0.000000 30.670183 0.000000
						}
					}
				}
				JOINT newVegas:Left_PantLeg
				{
					OFFSET 0.663870 -9.044666 -1.108900
					CHANNELS 3 Xrotation Yrotation Zrotation
					End Site
					{
						OFFSET 1.415995 20.635357 0.000000
					}
				}
			}
		}
		JOINT newVegas:RightUpLeg
		{
			OFFSET -18.735201 -5.666702 -4.541200
			CHANNELS 3 Xrotation Yrotation Zrotation
			JOINT newVegas:RightLeg
			{
				OFFSET 0.018946 -31.938133 0.493100
				CHANNELS 3 Xrotation Yrotation Zrotation
				JOINT newVegas:RightFoot
				{
					OFFSET -0.018946 -31.938126 -4.336299
					CHANNELS 3 Xrotation Yrotation Zrotation
					JOINT newVegas:RightToeBase
					{
						OFFSET -0.943001 -26.722004 15.023500
						CHANNELS 3 Xrotation Yrotation Zrotation
						End Site
						{
							OFFSET 0.000000 30.670187 0.000000
						}
					}
				}
				JOINT newVegas:Right_PantLeg
				{
					OFFSET -0.661674 -9.044716 -1.108900
					CHANNELS 3 Xrotation Yrotation Zrotation
					End Site
					{
						OFFSET -1.415958 20.635269 0.000000
					}
				}
			}
		}
	}
	JOINT newVegas:Spine
	{
		OFFSET 0.000000 10.199997 -0.299500
		CHANNELS 3 Xrotation Yrotation Zrotation
		JOINT newVegas:Spine1
		{
			OFFSET 0.000000 11.900002 -1.516600
			CHANNELS 3 Xrotation Yrotation Zrotation
			JOINT newVegas:Spine2
			{
				OFFSET 0.000000 13.600006 -2.842500
				CHANNELS 3 Xrotation Yrotation Zrotation
				JOINT newVegas:Neck
				{
					OFFSET 0.000000 9.624100 -2.890100
					CHANNELS 3 Xrotation Yrotation Zrotation
					JOINT newVegas:Head
					{
						OFFSET 0.000000 14.068802 -1.351900
						CHANNELS 3 Xrotation Yrotation Zrotation
						JOINT newVegas:Hair_Back
						{
							OFFSET 0.000000 3.231903 -17.524799
							CHANNELS 3 Xrotation Yrotation Zrotation
							End Site
							{
								OFFSET 0.000000 19.849884 0.000000
							}
						}
						JOINT newVegas:Hair_Front
						{
							OFFSET 0.000000 31.260406 4.573800
							CHANNELS 3 Xrotation Yrotation Zrotation
							JOINT newVegas:Hair_Front1
							{
								OFFSET 0.000000 2.284103 11.993300
								CHANNELS 3 Xrotation Yrotation Zrotation
								JOINT newVegas:Hair_Front2
								{
									OFFSET 0.000000 2.284103 11.993300
									CHANNELS 3 Xrotation Yrotation Zrotation
									End Site
									{
										OFFSET 0.000000 12.208862 0.000000
									}
								}
							}
						}
						JOINT newVegas:Jowel
						{
							OFFSET 0.000000 -7.458206 6.864100
							CHANNELS 3 Xrotation Yrotation Zrotation
							End Site
							{
								OFFSET 0.000000 19.849884 0.000000
							}
						}
					}
				}
				JOINT newVegas:LeftShoulder
				{
					OFFSET 15.263000 10.923401 -0.547700
					CHANNELS 3 Xrotation Yrotation Zrotation
					JOINT newVegas:LeftArm
					{
						OFFSET 25.438599 -2.830597 -13.032500
						CHANNELS 3 Xrotation Yrotation Zrotation
						JOINT newVegas:LeftForeArm
						{
							OFFSET 29.960503 0.000000 0.000000
							CHANNELS 3 Xrotation Yrotation Zrotation
							JOINT newVegas:LeftHand
							{
								OFFSET 27.849251 0.000000 0.000000
								CHANNELS 3 Xrotation Yrotation Zrotation
								JOINT newVegas:LeftHandThumb1
								{
									OFFSET 4.487587 -3.305161 6.305391
									CHANNELS 3 Xrotation Yrotation Zrotation
									JOINT newVegas:LeftHandThumb2
									{
										OFFSET 5.480453 -3.164139 3.164143
										CHANNELS 3 Xrotation Yrotation Zrotation
										JOINT newVegas:LeftHandThumb3
										{
											OFFSET 5.159721 -2.978973 2.978967
											CHANNELS 3 Xrotation Yrotation Zrotation
											End Site
											{
												OFFSET 2.494507 5.926697 1.738678
											}
										}
									}
								}
								JOINT newVegas:LeftHandIndex1
								{
									OFFSET 18.578728 -0.527832 5.208049
									CHANNELS 3 Xrotation Yrotation Zrotation
									JOINT newVegas:LeftHandIndex2
									{
										OFFSET 3.192009 0.000000 0.000000
										CHANNELS 3 Xrotation Yrotation Zrotation
										JOINT newVegas:LeftHandIndex3
										{
											OFFSET 3.835129 0.000000 0.000000
											CHANNELS 3 Xrotation Yrotation Zrotation
											End Site
											{
												OFFSET -0.034599 3.816971 0.371180
											}
										}
									}
								}
								JOINT newVegas:LeftHandMiddle1
								{
									OFFSET 18.476105 0.000000 0.000000
									CHANNELS 3 Xrotation Yrotation Zrotation
									JOINT newVegas:LeftHandMiddle2
									{
										OFFSET 3.324875 0.000000 0.000000
										CHANNELS 3 Xrotation Yrotation Zrotation
										JOINT newVegas:LeftHandMiddle3
										{
											OFFSET 4.596550 0.000000 0.000000
											CHANNELS 3 Xrotation Yrotation Zrotation
											End Site
											{
												OFFSET 0.057701 4.578827 0.399218
											}
										}
									}
								}
								JOINT newVegas:LeftHandRing1
								{
									OFFSET 17.732719 0.121887 -4.201567
									CHANNELS 3 Xrotation Yrotation Zrotation
									JOINT newVegas:LeftHandRing2
									{
										OFFSET 2.733170 0.000000 0.000000
										CHANNELS 3 Xrotation Yrotation Zrotation
										JOINT newVegas:LeftHandRing3
										{
											OFFSET 3.178268 0.000000 0.000000
											CHANNELS 3 Xrotation Yrotation Zrotation
											End Site
											{
												OFFSET 0.119102 3.170624 0.185394
											}
										}
									}
								}
								JOINT newVegas:LeftHandPinky1
								{
									OFFSET 15.989624 -0.606689 -7.535461
									CHANNELS 3 Xrotation Yrotation Zrotation
									JOINT newVegas:LeftHandPinky2
									{
										OFFSET 2.538986 0.000000 0.000000
										CHANNELS 3 Xrotation Yrotation Zrotation
										JOINT newVegas:LeftHandPinky3
										{
											OFFSET 2.593102 0.000000 0.000000
											CHANNELS 3 Xrotation Yrotation Zrotation
											End Site
											{
												OFFSET -0.150902 2.584198 0.152708
											}
										}
									}
								}
							}
							JOINT newVegas:Left_Sleeve
							{
								OFFSET 0.267448 -0.649796 0.577675
								CHANNELS 3 Xrotation Yrotation Zrotation
								End Site
								{
									OFFSET 0.000000 15.991241 0.000000
								}
							}
							JOINT newVegas:Left_CapeC
							{
								OFFSET 15.715958 -8.608795 -6.935905
								CHANNELS 3 Xrotation Yrotation Zrotation
								JOINT newVegas:Left_CapeC1
								{
									OFFSET 0.000000 -8.688499 0.000000
									CHANNELS 3 Xrotation Yrotation Zrotation
									End Site
									{
										OFFSET 0.000000 8.688499 0.000000
									}
								}
							}
						}
						JOINT newVegas:Left_CapeB
						{
							OFFSET 26.118385 -8.608795 -7.079235
							CHANNELS 3 Xrotation Yrotation Zrotation
							JOINT newVegas:Left_CapeB1
							{
								OFFSET 0.000000 -8.688499 0.000000
								CHANNELS 3 Xrotation Yrotation Zrotation
								End Site
								{
									OFFSET 0.000000 8.688499 0.000000
								}
							}
						}
						JOINT newVegas:Left_CapeA
						{
							OFFSET 5.115639 -8.608795 -10.395809
							CHANNELS 3 Xrotation Yrotation Zrotation
							JOINT newVegas:Left_CapeA1
							{
								OFFSET 0.000000 -8.688499 0.000000
								CHANNELS 3 Xrotation Yrotation Zrotation
								End Site
								{
									OFFSET 0.000000 8.688499 0.000000
								}
							}
						}
					}
				}
				JOINT newVegas:RightShoulder
				{
					OFFSET -15.263000 10.923401 -0.547700
					CHANNELS 3 Xrotation Yrotation Zrotation
					JOINT newVegas:RightArm
					{
						OFFSET -25.438599 -2.830597 -13.032500
						CHANNELS 3 Xrotation Yrotation Zrotation
						JOINT newVegas:RightForeArm
						{
							OFFSET -29.960503 0.000000 0.000000
							CHANNELS 3 Xrotation Yrotation Zrotation
							JOINT newVegas:RightHand
							{
								OFFSET -27.849251 0.000000 0.000000
								CHANNELS 3 Xrotation Yrotation Zrotation
								JOINT newVegas:RightHandThumb1
								{
									OFFSET -4.487587 -3.305161 6.305391
									CHANNELS 3 Xrotation Yrotation Zrotation
									JOINT newVegas:RightHandThumb2
									{
										OFFSET -5.480453 -3.164139 3.164143
										CHANNELS 3 Xrotation Yrotation Zrotation
										JOINT newVegas:RightHandThumb3
										{
											OFFSET -5.159721 -2.978973 2.978967
											CHANNELS 3 Xrotation Yrotation Zrotation
											End Site
											{
												OFFSET -2.494507 5.926697 1.738678
											}
										}
									}
								}
								JOINT newVegas:RightHandIndex1
								{
									OFFSET -18.578728 -0.527832 5.208049
									CHANNELS 3 Xrotation Yrotation Zrotation
									JOINT newVegas:RightHandIndex2
									{
										OFFSET -3.192009 0.000000 0.000000
										CHANNELS 3 Xrotation Yrotation Zrotation
										JOINT newVegas:RightHandIndex3
										{
											OFFSET -3.835129 0.000000 0.000000
											CHANNELS 3 Xrotation Yrotation Zrotation
											End Site
											{
												OFFSET 0.034599 3.816971 0.371180
											}
										}
									}
								}
								JOINT newVegas:RightHandMiddle1
								{
									OFFSET -18.476105 0.000000 0.000000
									CHANNELS 3 Xrotation Yrotation Zrotation
									JOINT newVegas:RightHandMiddle2
									{
										OFFSET -3.324875 0.000000 0.000000
										CHANNELS 3 Xrotation Yrotation Zrotation
										JOINT newVegas:RightHandMiddle3
										{
											OFFSET -4.596550 0.000000 0.000000
											CHANNELS 3 Xrotation Yrotation Zrotation
											End Site
											{
												OFFSET -0.057701 4.578827 0.399218
											}
										}
									}
								}
								JOINT newVegas:RightHandRing1
								{
									OFFSET -17.732719 0.121887 -4.201567
									CHANNELS 3 Xrotation Yrotation Zrotation
									JOINT newVegas:RightHandRing2
									{
										OFFSET -2.733170 0.000000 0.000000
										CHANNELS 3 Xrotation Yrotation Zrotation
										JOINT newVegas:RightHandRing3
										{
											OFFSET -3.178268 0.000000 0.000000
											CHANNELS 3 Xrotation Yrotation Zrotation
											End Site
											{
												OFFSET -0.119102 3.170624 0.185394
											}
										}
									}
								}
								JOINT newVegas:RightHandPinky1
								{
									OFFSET -15.989624 -0.606689 -7.535461
									CHANNELS 3 Xrotation Yrotation Zrotation
									JOINT newVegas:RightHandPinky2
									{
										OFFSET -2.538986 0.000000 0.000000
										CHANNELS 3 Xrotation Yrotation Zrotation
										JOINT newVegas:RightHandPinky3
										{
											OFFSET -2.593102 0.000000 0.000000
											CHANNELS 3 Xrotation Yrotation Zrotation
											End Site
											{
												OFFSET 0.150902 2.584198 0.152708
											}
										}
									}
								}
							}
							JOINT newVegas:Right_CapeC
							{
								OFFSET -15.715958 -8.608795 -6.935905
								CHANNELS 3 Xrotation Yrotation Zrotation
								JOINT newVegas:Right_CapeC1
								{
									OFFSET 0.000000 -8.688499 0.000000
									CHANNELS 3 Xrotation Yrotation Zrotation
									End Site
									{
										OFFSET 0.000000 8.688499 0.000000
									}
								}
							}
							JOINT newVegas:Right_Sleeve
							{
								OFFSET -0.267448 -0.649994 0.577675
								CHANNELS 3 Xrotation Yrotation Zrotation
								End Site
								{
									OFFSET 0.000000 15.991302 0.000000
								}
							}
						}
						JOINT newVegas:Right_CapeA
						{
							OFFSET -5.115540 -8.608795 -10.395824
							CHANNELS 3 Xrotation Yrotation Zrotation
							JOINT newVegas:Right_CapeA1
							{
								OFFSET 0.000000 -8.688499 0.000000
								CHANNELS 3 Xrotation Yrotation Zrotation
								End Site
								{
									OFFSET 0.000000 8.688499 0.000000
								}
							}
						}
						JOINT newVegas:Right_CapeB
						{
							OFFSET -26.118187 -8.608795 -7.079266
							CHANNELS 3 Xrotation Yrotation Zrotation
							JOINT newVegas:Right_CapeB1
							{
								OFFSET 0.000000 -8.688499 0.000000
								CHANNELS 3 Xrotation Yrotation Zrotation
								End Site
								{
									OFFSET 0.000000 8.688499 0.000000
								}
							}
						}
					}
				}
				JOINT newVegas:Left_Collar
				{
					OFFSET 18.625099 8.655502 8.828100
					CHANNELS 3 Xrotation Yrotation Zrotation
					JOINT newVegas:Left_Collar1
					{
						OFFSET 14.783401 10.540405 -1.259500
						CHANNELS 3 Xrotation Yrotation Zrotation
						End Site
						{
							OFFSET 0.000000 18.199875 0.000000
						}
					}
				}
				JOINT newVegas:Collar_Back
				{
					OFFSET 0.000000 15.630707 -20.132601
					CHANNELS 3 Xrotation Yrotation Zrotation
					End Site
					{
						OFFSET 0.000000 22.523010 0.000000
					}
				}
				JOINT newVegas:Left_Peck
				{
					OFFSET 17.239599 -5.132599 25.482599
					CHANNELS 3 Xrotation Yrotation Zrotation
					End Site
					{
						OFFSET 0.000000 22.523010 0.000000
					}
				}
				JOINT newVegas:Right_Peck
				{
					OFFSET -17.239599 -5.132202 25.482599
					CHANNELS 3 Xrotation Yrotation Zrotation
					End Site
					{
						OFFSET 0.000000 22.523010 0.000000
					}
				}
				JOINT newVegas:Right_Collar
				{
					OFFSET -18.625099 8.655792 8.828100
					CHANNELS 3 Xrotation Yrotation Zrotation
					JOINT newVegas:Right_Collar1
					{
						OFFSET -14.783401 10.539993 -1.259500
						CHANNELS 3 Xrotation Yrotation Zrotation
						End Site
						{
							OFFSET 0.000000 18.199631 0.000000
						}
					}
				}
			}
		}
		JOINT newVegas:Belly
		{
			OFFSET 0.000000 -6.540398 9.014299
			CHANNELS 3 Xrotation Yrotation Zrotation
			End Site
			{
				OFFSET 0.000000 11.566666 0.000000
			}
		}
	}
	JOINT newVegas:ElvisFacialAnim_Joint
	{
		OFFSET 1.000000 -95.330101 -8.825800
		CHANNELS 3 Xrotation Yrotation Zrotation
		End Site
		{
			OFFSET 0.000000 35.315800 0.000000
		}
	}
}
MOTION
Frames: 4
Frame Time: 0.016667
-1.463940 74.332565 6.979462 26.322052 -23.039975 8.777268 0.000000 -0.000001 0.000000 -80.776768 -7.082998 25.946663 65.687432 -2.724088 4.883898 -4.867565 2.327568 -22.313222 0.000000 0.000000 -0.000000 0.000000 -0.000000 0.000002 -73.369817 -1.025331 -25.993881 70.021467 1.142145 -7.530588 -16.339706 -4.798783 21.273189 0.000000 0.000001 0.000000 0.000003 0.000000 -0.000002 14.946040 2.507329 -0.803725 8.954929 1.454251 -0.667652 8.929217 1.567218 -0.769628 -3.068386 1.147551 -3.131432 -3.068418 1.147550 -3.131434 0.000002 0.000000 -0.000001 -3.068264 1.147545 -3.131432 -3.068490 1.147550 -3.131429 0.000003 -0.000000 -0.000000 0.000002 0.000000 -0.000001 3.858311 -6.469473 9.422129 -49.881059 5.784877 -65.370948 0.001600 -89.198391 0.001465 6.361832 1.183435 20.596027 -17.636573 -15.237862 2.797098 5.947427 34.911662 2.502014 0.000002 -0.000002 -0.000003 0.388068 -2.283075 19.290713 0.587325 2.787359 -23.793331 -0.000000 0.000000 -0.000001 0.388701 -2.284891 19.306728 0.588111 2.789123 -23.809336 0.000002 -0.000000 -0.000001 0.388056 -2.283067 19.290708 0.587328 2.787358 -23.793319 0.000001 0.000001 0.000002 -0.967819 1.537875 19.792322 0.593523 -1.272012 -24.261665 -0.000005 -0.000003 0.000000 0.000000 0.000001 -0.000000 0.000000 0.000001 -0.000000 -0.000000 0.000000 0.000000 -0.000000 0.000001 -0.000002 0.000000 0.000001 -0.000002 -0.000000 0.000001 -0.000002 0.000000 0.000000 -0.000002 3.960233 12.222857 4.273397 -38.946917 11.840052 48.020823 -0.000091 93.734921 0.000085 19.436152 10.205494 7.992481 30.641417 13.211262 -0.281798 7.057594 -37.365895 -1.833690 -0.000002 -0.000000 -0.000000 0.155613 1.465711 -12.119898 0.379782 -2.270634 18.987429 0.000000 0.000002 -0.000001 0.155609 1.465715 -12.119892 0.379798 -2.270641 18.987419 -0.000004 -0.000002 -0.000001 0.155617 1.465698 -12.119905 0.379780 -2.270627 18.987432 -0.000001 0.000002 0.000000 0.155616 1.465712 -12.119903 0.379779 -2.270621 18.987441 -0.000002 0.000003 0.000001 -0.000001 0.000001 -0.000000 0.000001 0.000001 -0.000000 -0.000001 0.000001 -0.000000 -0.000000 0.000002 -0.000000 -0.000000 0.000002 0.000000 -0.000000 0.000002 -0.000000 -0.000000 0.000001 0.000000 0.000001 0.000001 -0.000001 0.000001 0.000001 -0.000001 0.000001 0.000001 -0.000001 0.000001 0.000001 -0.000001 0.000001 0.000001 -0.000001 0.000001 0.000001 -0.000001 0.000001 0.000001 -0.000001 -0.000000 0.000001 -0.000000 0.000000 -0.000001 0.000000 
-1.482050 74.402153 7.053963 26.447167 -23.103084 8.831168 0.000001 0.000000 -0.000000 -80.697811 -7.018664 26.002330 65.629177 -2.770119 4.909750 -5.009013 2.356490 -22.377662 -0.000000 0.000000 -0.000000 -0.000000 -0.000001 -0.000002 -73.339894 -1.143090 -25.863252 69.836649 0.986937 -7.667100 -16.366330 -4.644962 21.218010 -0.000000 -0.000001 0.000000 0.000001 0.000000 0.000002 14.953866 2.373395 -0.842463 8.942648 1.377979 -0.669284 8.917272 1.494828 -0.768341 -3.051498 1.184121 -3.074848 -3.051516 1.184121 -3.074844 -0.000002 -0.000001 -0.000000 -3.051407 1.184129 -3.074854 -3.051575 1.184106 -3.074845 0.000002 -0.000000 0.000000 -0.000002 -0.000001 0.000000 3.797569 -6.379665 8.897873 -49.025052 5.833146 -65.558594 0.006113 -90.336219 0.005720 6.494220 1.888121 21.591273 -17.777608 -15.392972 2.760415 5.958625 35.079940 2.510957 -0.000000 -0.000000 0.000002 0.392781 -2.296496 19.408852 0.610798 2.839935 -24.271499 -0.000001 -0.000001 -0.000001 0.393423 -2.298312 19.424865 0.611586 2.841704 -24.287492 0.000002 0.000001 -0.000001 0.392778 -2.296491 19.408862 0.610807 2.839938 -24.271499 0.000002 -0.000001 -0.000001 -0.970971 1.521630 19.910044 0.617397 -1.219619 -24.738163 0.000000 -0.000002 0.000001 0.000000 0.000001 0.000001 0.000000 0.000001 0.000001 -0.000001 0.000001 0.000001 0.000002 0.000001 0.000001 0.000002 0.000001 -0.000001 0.000002 0.000001 0.000001 0.000002 -0.000000 0.000000 3.972546 12.168645 4.140061 -38.744453 11.705563 49.039966 -0.000375 95.072019 0.000367 22.139730 11.186744 7.333669 30.626432 13.316663 -0.202576 7.068255 -37.497766 -1.838805 0.000000 0.000000 -0.000000 0.168399 1.523984 -12.609641 0.421759 -2.389078 20.020292 0.000000 0.000001 0.000001 0.168391 1.523978 -12.609638 0.421763 -2.389079 20.020290 0.000002 -0.000001 -0.000001 0.168388 1.523986 -12.609643 0.421761 -2.389092 20.020285 0.000006 0.000001 -0.000001 0.168388 1.523992 -12.609643 0.421758 -2.389075 20.020290 -0.000001 0.000003 0.000004 -0.000002 -0.000001 -0.000000 -0.000002 0.000000 0.000000 -0.000002 -0.000001 -0.000000 0.000000 0.000002 0.000002 0.000000 0.000002 0.000000 0.000000 0.000002 0.000002 0.000000 0.000002 0.000002 0.000003 0.000001 -0.000000 0.000003 0.000001 -0.000000 0.000003 0.000001 -0.000000 0.000003 0.000001 -0.000000 0.000003 0.000001 -0.000000 0.000003 0.000001 -0.000000 0.000003 0.000001 -0.000000 0.000001 -0.000000 -0.000000 0.000001 0.000000 -0.000000 
-1.512481 74.441910 7.107832 26.594013 -23.182895 8.901891 -0.000003 0.000000 -0.000001 -80.651632 -7.000037 26.073173 65.607457 -2.797163 4.939309 -5.145444 2.390531 -22.483289 -0.000000 -0.000000 0.000000 -0.000000 -0.000001 0.000000 -73.378662 -1.217670 -25.708424 69.727496 0.966586 -7.779198 -16.392181 -4.629156 21.149399 -0.000000 0.000002 0.000000 0.000002 -0.000002 0.000003 14.960054 2.227192 -0.861391 8.932680 1.291004 -0.662406 8.908017 1.411638 -0.757964 -3.046563 1.228670 -3.024532 -3.046547 1.228668 -3.024531 0.000001 0.000001 0.000000 -3.046546 1.228669 -3.024533 -3.046502 1.228674 -3.024534 -0.000001 0.000000 0.000000 0.000001 0.000001 0.000000 3.730458 -6.286348 8.218745 -48.220213 5.755351 -65.566599 0.000037 -91.419466 -0.000045 6.568300 2.351854 22.524212 -17.920191 -15.550478 2.725520 5.969992 35.250497 2.519969 -0.000000 -0.000002 -0.000003 0.397585 -2.310118 19.528547 0.616505 2.852525 -24.386258 -0.000000 0.000000 -0.000000 0.398226 -2.311922 19.544557 0.617300 2.854272 -24.402266 -0.000008 0.000000 -0.000001 0.397585 -2.310116 19.528546 0.616512 2.852536 -24.386236 -0.000001 -0.000001 0.000001 -0.974129 1.505196 20.029345 0.623217 -1.207093 -24.852499 -0.000003 -0.000002 -0.000002 -0.000001 0.000001 0.000000 -0.000001 0.000001 0.000000 -0.000001 0.000000 0.000000 0.000001 0.000000 -0.000001 0.000001 0.000000 -0.000001 0.000001 0.000000 -0.000001 0.000001 0.000000 -0.000001 3.981627 12.107282 3.979450 -38.415863 11.620496 49.978769 -0.000082 96.616509 0.000089 23.882036 11.595316 6.699892 30.612874 13.427152 -0.120941 7.079064 -37.631436 -1.843981 0.000001 -0.000001 0.000001 0.181678 1.582213 -13.100014 0.465937 -2.506929 21.054762 -0.000002 0.000001 -0.000001 0.181671 1.582217 -13.100013 0.465953 -2.506931 21.054743 -0.000002 -0.000002 -0.000001 0.181675 1.582205 -13.100028 0.465949 -2.506934 21.054743 0.000002 0.000001 -0.000000 0.181676 1.582212 -13.100024 0.465942 -2.506910 21.054757 -0.000002 -0.000000 -0.000002 -0.000003 0.000000 0.000000 -0.000003 0.000000 0.000000 -0.000003 0.000000 0.000000 -0.000000 0.000000 -0.000003 -0.000001 0.000000 -0.000003 -0.000000 0.000000 -0.000003 -0.000001 -0.000000 -0.000003 0.000003 -0.000001 -0.000000 0.000003 -0.000001 -0.000000 0.000003 -0.000001 -0.000000 0.000003 -0.000001 -0.000000 0.000003 -0.000001 -0.000000 0.000003 -0.000001 -0.000000 0.000003 -0.000001 -0.000000 0.000003 -0.000001 -0.000002 -0.000003 0.000000 -0.000001 
-1.556365 74.452866 7.142593 26.761059 -23.274549 8.992037 -0.000000 -0.000000 0.000001 -80.637097 -7.015914 26.153793 65.615360 -2.808458 4.976253 -5.275073 2.428167 -22.621189 0.000000 0.000000 -0.000000 0.000000 -0.000000 -0.000002 -73.483301 -1.248137 -25.531464 69.686071 0.940342 -7.895724 -16.425948 -4.624347 21.105758 -0.000000 0.000000 0.000000 -0.000000 -0.000001 -0.000000 14.968911 2.079292 -0.858080 8.925415 1.196946 -0.646760 8.901917 1.320520 -0.738020 -3.054528 1.279126 -2.983391 -3.054549 1.279124 -2.983401 0.000002 0.000000 -0.000000 -3.054515 1.279129 -2.983399 -3.054528 1.279135 -2.983396 -0.000000 -0.000001 -0.000000 0.000002 0.000000 0.000000 3.660234 -6.192010 7.427263 -47.464012 5.638784 -65.420959 -0.000432 -92.434098 -0.000506 6.579927 2.602524 23.316925 -18.073932 -15.721279 2.690569 5.981475 35.423424 2.529107 0.000002 -0.000004 -0.000003 0.402498 -2.323890 19.649964 0.622314 2.865296 -24.502619 -0.000003 0.000000 -0.000000 0.403148 -2.325696 19.665979 0.623115 2.867037 -24.518648 -0.000004 0.000000 0.000000 0.402489 -2.323879 19.649976 0.622321 2.865291 -24.502609 -0.000001 -0.000001 0.000001 -0.977268 1.488491 20.150332 0.629095 -1.194369 -24.968465 -0.000004 0.000004 -0.000000 -0.000002 0.000001 0.000003 -0.000002 0.000001 0.000003 -0.000003 0.000001 0.000003 0.000001 0.000000 0.000001 0.000001 0.000000 0.000001 0.000001 0.000000 0.000001 -0.000000 -0.000001 0.000001 3.982092 12.033534 3.810697 -38.063288 11.622194 50.879647 -0.000877 98.202103 0.000862 24.991838 11.467084 6.028758 30.609431 13.454896 -0.100486 7.090055 -37.766985 -1.849180 0.000000 -0.000002 -0.000003 0.195488 1.640390 -13.591123 0.512316 -2.624113 22.090903 -0.000003 0.000001 -0.000002 0.195487 1.640390 -13.591119 0.512321 -2.624114 22.090893 0.000003 0.000001 -0.000001 0.195485 1.640382 -13.591132 0.512338 -2.624113 22.090883 -0.000002 0.000001 -0.000000 0.195481 1.640415 -13.591107 0.512346 -2.624128 22.090874 -0.000003 0.000002 -0.000003 0.000000 0.000000 -0.000000 0.000000 0.000000 -0.000000 0.000000 0.000000 0.000000 0.000000 0.000000 -0.000000 -0.000000 0.000000 -0.000000 0.000000 0.000000 -0.000000 -0.000000 -0.000000 -0.000000 -0.000000 0.000000 -0.000001 -0.000000 0.000000 -0.000001 -0.000000 0.000000 -0.000001 -0.000000 0.000000 -0.000001 -0.000000 0.000000 -0.000001 -0.000000 0.000000 -0.000001 -0.000000 0.000000 -0.000001 0.000004 -0.000001 -0.000000 -0.000000 -0.000000 0.000001 
